<?xml version="1.0" standalone="no"?>
<!DOCTYPE svg PUBLIC "-//W3C//DTD SVG 20010904//EN"
 "http://www.w3.org/TR/2001/REC-SVG-20010904/DTD/svg10.dtd">
<svg version="1.0" xmlns="http://www.w3.org/2000/svg"
 width="147.000000pt" height="97.000000pt" viewBox="0 0 147.000000 97.000000"
 preserveAspectRatio="xMidYMid meet">

<g transform="translate(0.000000,97.000000) scale(0.100000,-0.100000)"
fill="#000000" stroke="none">
<path d="M617 939 c-254 -27 -479 -154 -558 -315 -77 -156 -20 -331 146 -449
81 -58 174 -100 283 -127 127 -33 380 -32 502 0 203 55 367 169 427 298 40 84
39 184 -1 272 -76 165 -299 291 -569 321 -106 12 -117 12 -230 0z m198 -73
c19 -8 40 -27 47 -41 10 -22 9 -29 -8 -45 -23 -24 -102 -40 -147 -30 -29 6
-26 7 26 12 61 5 107 34 92 58 -22 36 -136 51 -204 27 -43 -15 -80 -62 -63
-79 20 -20 13 -32 -8 -13 -26 24 -25 47 3 73 51 48 189 68 262 38z m-70 -26
c26 -6 22 -8 -23 -9 -155 -3 -143 -96 13 -96 96 0 141 25 139 79 -1 36 -1 36
18 19 56 -50 -49 -123 -177 -123 -62 0 -139 35 -143 66 -7 50 89 85 173 64z
m383 -126 c12 -8 22 -20 22 -25 0 -6 -10 -3 -22 5 -35 25 -58 19 -97 -22 -47
-50 -71 -118 -78 -219 -9 -126 28 -202 97 -204 l25 0 -24 -10 c-32 -13 -55 -4
-85 31 -37 45 -51 128 -37 225 24 172 119 276 199 219z m-778 -99 c0 -23 -4
-25 -45 -25 l-45 0 0 -130 c0 -123 -1 -130 -20 -130 -19 0 -20 7 -20 130 l0
130 -39 0 c-42 0 -57 11 -47 35 4 12 28 15 111 15 l105 0 0 -25z m320 -37 c4
-48 7 -56 20 -48 23 15 38 12 60 -10 17 -17 20 -33 20 -106 0 -76 -2 -85 -17
-82 -15 3 -18 16 -21 81 -2 57 -7 79 -18 84 -31 11 -44 -17 -44 -93 0 -67 -2
-74 -20 -74 -19 0 -20 7 -20 156 0 143 1 155 18 152 13 -2 18 -16 22 -60z
m590 29 c0 -12 -7 -77 -15 -142 -8 -66 -15 -123 -15 -127 0 -5 -7 -8 -15 -8
-11 0 -14 7 -11 23 3 12 10 69 16 127 6 58 13 115 16 128 6 29 24 29 24 -1z
m70 1 c0 -13 -7 -77 -15 -143 -8 -65 -15 -123 -15 -127 0 -4 -7 -8 -15 -8 -11
0 -14 7 -11 23 3 12 10 72 16 132 6 61 14 118 16 128 8 25 24 21 24 -5z m-481
-34 c-14 -14 -17 -14 -29 0 -10 13 -10 19 0 32 12 14 15 14 29 0 14 -15 14
-17 0 -32z m-434 -59 c22 -21 25 -33 25 -90 0 -45 3 -64 11 -59 7 4 10 -1 7
-12 -3 -16 -14 -19 -66 -21 -59 -3 -63 -1 -73 24 -12 33 7 65 51 83 19 8 30
19 28 29 -4 20 -44 27 -64 11 -12 -10 -14 -8 -14 14 0 18 7 29 23 36 35 14 46
12 72 -15z m149 15 c16 -6 26 -17 26 -30 0 -23 -4 -24 -32 -9 -14 8 -23 8 -31
0 -8 -8 1 -22 31 -49 46 -43 50 -56 26 -90 -13 -19 -24 -22 -57 -20 -38 3 -42
6 -45 33 -3 24 -1 28 9 18 14 -14 51 -17 63 -6 3 4 -12 24 -34 44 -46 42 -53
79 -18 103 26 19 29 19 62 6z m286 -100 c0 -93 -1 -100 -20 -100 -19 0 -20 7
-20 100 0 93 1 100 20 100 19 0 20 -7 20 -100z m314 78 c9 -12 16 -32 16 -45
0 -19 -6 -22 -52 -25 -52 -3 -53 -4 -51 -33 3 -39 27 -57 60 -44 31 12 40 5
23 -16 -19 -23 -76 -19 -94 7 -24 34 -21 119 5 152 26 33 71 35 93 4z m-304
-222 c0 -2 -8 -10 -17 -17 -16 -13 -17 -12 -4 4 13 16 21 21 21 13z m-574 -32
c-4 -14 -3 -23 2 -20 5 3 9 -1 9 -9 0 -15 -26 -29 -35 -20 -3 3 0 5 6 5 7 0
12 5 12 11 0 5 -4 8 -9 5 -5 -4 -4 7 2 24 14 37 22 39 13 4z m364 -5 c-7 -11
-9 -27 -6 -35 3 -8 1 -14 -4 -14 -6 0 -9 16 -7 35 1 21 7 35 15 35 10 0 10 -5
2 -21z m-317 -19 c-3 -11 -9 -20 -15 -20 -5 0 -4 9 2 20 6 11 12 20 14 20 2 0
2 -9 -1 -20z m40 9 c-6 -6 -9 -19 -6 -28 4 -12 3 -13 -6 -5 -13 12 -5 44 12
44 8 0 8 -3 0 -11z m52 -12 c6 -5 3 -7 -7 -3 -15 4 -18 -1 -19 -27 -1 -18 -3
-24 -6 -14 -6 24 6 72 15 61 4 -5 12 -13 17 -17z m406 4 c-6 -10 -7 -22 -3
-26 4 -5 1 -5 -6 -1 -9 5 -9 12 -2 27 6 10 13 19 16 19 2 0 0 -8 -5 -19z
m-291 -11 c0 -11 -4 -20 -9 -20 -5 0 -7 9 -4 20 3 11 7 20 9 20 2 0 4 -9 4
-20z m147 9 c-9 -6 -14 -16 -11 -22 5 -9 4 -9 -6 0 -15 14 -5 33 18 33 15 -1
15 -2 -1 -11z m42 -11 c0 -13 -3 -18 -5 -11 -3 7 -13 9 -22 6 -13 -4 -12 -2 3
10 26 21 25 21 24 -5z m59 3 c-11 -18 -38 -18 -38 0 0 4 6 6 14 3 8 -3 17 -1
21 5 3 6 8 11 11 11 2 0 -1 -9 -8 -19z m-288 -12 c0 -6 -4 -7 -10 -4 -5 3 -10
11 -10 16 0 6 5 7 10 4 6 -3 10 -11 10 -16z m75 11 c3 -5 2 -10 -4 -10 -5 0
-13 5 -16 10 -3 6 -2 10 4 10 5 0 13 -4 16 -10z m280 0 c3 -5 1 -10 -4 -10 -6
0 -11 5 -11 10 0 6 2 10 4 10 3 0 8 -4 11 -10z"/>
<path d="M365 406 c-11 -8 -16 -19 -12 -30 10 -27 42 -15 45 17 4 30 -5 34
-33 13z"/>
<path d="M1097 492 c-24 -27 -21 -32 18 -32 36 0 46 15 23 38 -16 16 -22 15
-41 -6z"/>
</g>
</svg>
